<mxfile host="65bd71144e">
    <diagram id="4zqRe1Uasq-oflodSKAQ" name="Page-1">
        <mxGraphModel dx="428" dy="510" grid="1" gridSize="10" guides="1" tooltips="1" connect="1" arrows="1" fold="1" page="1" pageScale="1" pageWidth="1100" pageHeight="850" math="0" shadow="0">
            <root>
                <mxCell id="0"/>
                <mxCell id="1" parent="0"/>
                <mxCell id="2" value="" style="endArrow=none;html=1;startArrow=none;startFill=0;endFill=0;fillColor=#f8cecc;strokeColor=#000000;strokeWidth=1;" parent="1" edge="1">
                    <mxGeometry width="50" height="50" relative="1" as="geometry">
                        <mxPoint x="639.5" y="280" as="sourcePoint"/>
                        <mxPoint x="640" y="140" as="targetPoint"/>
                    </mxGeometry>
                </mxCell>
                <mxCell id="3" value="" style="endArrow=none;html=1;startArrow=none;startFill=0;endFill=0;fillColor=#fff2cc;strokeColor=#000000;strokeWidth=1;dashed=1;dashPattern=1 4;" parent="1" edge="1">
                    <mxGeometry width="50" height="50" relative="1" as="geometry">
                        <mxPoint x="640" y="280" as="sourcePoint"/>
                        <mxPoint x="520" y="360" as="targetPoint"/>
                    </mxGeometry>
                </mxCell>
                <mxCell id="4" value="" style="endArrow=none;html=1;startArrow=none;startFill=0;endFill=0;fillColor=#dae8fc;strokeColor=#000000;strokeWidth=1;sketch=0;dashed=1;" parent="1" edge="1">
                    <mxGeometry width="50" height="50" relative="1" as="geometry">
                        <mxPoint x="760" y="360" as="sourcePoint"/>
                        <mxPoint x="640" y="280" as="targetPoint"/>
                    </mxGeometry>
                </mxCell>
                <mxCell id="25" value="" style="endArrow=none;html=1;startArrow=none;startFill=0;endFill=0;fillColor=#f8cecc;strokeColor=#000000;entryX=0.5;entryY=1;entryDx=0;entryDy=0;" parent="1" target="69" edge="1">
                    <mxGeometry width="50" height="50" relative="1" as="geometry">
                        <mxPoint x="610" y="260" as="sourcePoint"/>
                        <mxPoint x="611" y="150" as="targetPoint"/>
                    </mxGeometry>
                </mxCell>
                <mxCell id="26" value="" style="endArrow=none;html=1;startArrow=none;startFill=0;endFill=0;fillColor=#f8cecc;strokeColor=#000000;entryX=0.5;entryY=1;entryDx=0;entryDy=0;" parent="1" target="70" edge="1">
                    <mxGeometry width="50" height="50" relative="1" as="geometry">
                        <mxPoint x="610" y="260" as="sourcePoint"/>
                        <mxPoint x="590" y="170" as="targetPoint"/>
                    </mxGeometry>
                </mxCell>
                <mxCell id="27" value="" style="endArrow=none;html=1;startArrow=none;startFill=0;endFill=0;fillColor=#f8cecc;strokeColor=#000000;entryX=1;entryY=1;entryDx=0;entryDy=0;" parent="1" target="68" edge="1">
                    <mxGeometry width="50" height="50" relative="1" as="geometry">
                        <mxPoint x="610" y="260" as="sourcePoint"/>
                        <mxPoint x="570" y="200" as="targetPoint"/>
                    </mxGeometry>
                </mxCell>
                <mxCell id="28" value="" style="endArrow=none;html=1;startArrow=none;startFill=0;endFill=0;fillColor=#fff2cc;strokeColor=#000000;dashed=1;dashPattern=1 4;" parent="1" edge="1">
                    <mxGeometry width="50" height="50" relative="1" as="geometry">
                        <mxPoint x="610.08" y="260" as="sourcePoint"/>
                        <mxPoint x="530" y="310" as="targetPoint"/>
                    </mxGeometry>
                </mxCell>
                <mxCell id="29" value="" style="endArrow=none;html=1;startArrow=none;startFill=0;endFill=0;fillColor=#fff2cc;strokeColor=#000000;dashed=1;entryX=1;entryY=0.5;entryDx=0;entryDy=0;dashPattern=1 4;" parent="1" target="77" edge="1">
                    <mxGeometry width="50" height="50" relative="1" as="geometry">
                        <mxPoint x="610" y="260" as="sourcePoint"/>
                        <mxPoint x="530" y="260" as="targetPoint"/>
                    </mxGeometry>
                </mxCell>
                <mxCell id="30" value="" style="endArrow=none;html=1;startArrow=none;startFill=0;endFill=0;fillColor=#fff2cc;strokeColor=#000000;dashed=1;entryX=1;entryY=0.5;entryDx=0;entryDy=0;dashPattern=1 4;" parent="1" target="78" edge="1">
                    <mxGeometry width="50" height="50" relative="1" as="geometry">
                        <mxPoint x="610" y="260" as="sourcePoint"/>
                        <mxPoint x="530" y="290" as="targetPoint"/>
                    </mxGeometry>
                </mxCell>
                <mxCell id="31" value="" style="endArrow=none;html=1;startArrow=none;startFill=0;endFill=0;fillColor=#fff2cc;strokeColor=#000000;dashed=1;entryX=1;entryY=0;entryDx=0;entryDy=0;dashPattern=1 4;" parent="1" target="75" edge="1">
                    <mxGeometry width="50" height="50" relative="1" as="geometry">
                        <mxPoint x="640.0799999999999" y="310" as="sourcePoint"/>
                        <mxPoint x="560" y="370" as="targetPoint"/>
                    </mxGeometry>
                </mxCell>
                <mxCell id="32" value="" style="endArrow=none;html=1;startArrow=none;startFill=0;endFill=0;fillColor=#fff2cc;strokeColor=#000000;dashed=1;entryX=0.5;entryY=0;entryDx=0;entryDy=0;dashPattern=1 4;" parent="1" target="74" edge="1">
                    <mxGeometry width="50" height="50" relative="1" as="geometry">
                        <mxPoint x="640" y="310" as="sourcePoint"/>
                        <mxPoint x="620" y="370" as="targetPoint"/>
                    </mxGeometry>
                </mxCell>
                <mxCell id="33" value="" style="endArrow=none;html=1;startArrow=none;startFill=0;endFill=0;fillColor=#fff2cc;strokeColor=#000000;dashed=1;entryX=0.5;entryY=0;entryDx=0;entryDy=0;dashPattern=1 4;" parent="1" target="76" edge="1">
                    <mxGeometry width="50" height="50" relative="1" as="geometry">
                        <mxPoint x="640" y="310" as="sourcePoint"/>
                        <mxPoint x="580" y="370" as="targetPoint"/>
                    </mxGeometry>
                </mxCell>
                <mxCell id="34" value="" style="endArrow=none;html=1;startArrow=none;startFill=0;endFill=0;fillColor=#dae8fc;strokeColor=#000000;strokeWidth=1;sketch=0;dashed=1;exitX=0;exitY=0;exitDx=0;exitDy=0;fontColor=#66B2FF;" parent="1" source="84" edge="1">
                    <mxGeometry width="50" height="50" relative="1" as="geometry">
                        <mxPoint x="720" y="370" as="sourcePoint"/>
                        <mxPoint x="640" y="310" as="targetPoint"/>
                    </mxGeometry>
                </mxCell>
                <mxCell id="35" value="" style="endArrow=none;html=1;startArrow=none;startFill=0;endFill=0;fillColor=#dae8fc;strokeColor=#000000;strokeWidth=1;dashed=1;fontColor=#66B2FF;" parent="1" edge="1">
                    <mxGeometry width="50" height="50" relative="1" as="geometry">
                        <mxPoint x="660" y="370" as="sourcePoint"/>
                        <mxPoint x="640" y="310" as="targetPoint"/>
                    </mxGeometry>
                </mxCell>
                <mxCell id="36" value="" style="endArrow=none;html=1;startArrow=none;startFill=0;endFill=0;fillColor=#dae8fc;strokeColor=#000000;strokeWidth=1;sketch=0;dashed=1;exitX=0;exitY=0;exitDx=0;exitDy=0;fontColor=#66B2FF;" parent="1" source="85" edge="1">
                    <mxGeometry width="50" height="50" relative="1" as="geometry">
                        <mxPoint x="700" y="370" as="sourcePoint"/>
                        <mxPoint x="640" y="310" as="targetPoint"/>
                    </mxGeometry>
                </mxCell>
                <mxCell id="37" value="" style="endArrow=none;html=1;startArrow=none;startFill=0;endFill=0;fillColor=#f8cecc;strokeColor=#000000;entryX=0.5;entryY=1;entryDx=0;entryDy=0;" parent="1" target="71" edge="1">
                    <mxGeometry width="50" height="50" relative="1" as="geometry">
                        <mxPoint x="670" y="260" as="sourcePoint"/>
                        <mxPoint x="671" y="150" as="targetPoint"/>
                    </mxGeometry>
                </mxCell>
                <mxCell id="38" value="" style="endArrow=none;html=1;startArrow=none;startFill=0;endFill=0;fillColor=#f8cecc;strokeColor=#000000;entryX=0.5;entryY=1;entryDx=0;entryDy=0;" parent="1" target="72" edge="1">
                    <mxGeometry width="50" height="50" relative="1" as="geometry">
                        <mxPoint x="670" y="260" as="sourcePoint"/>
                        <mxPoint x="680" y="170" as="targetPoint"/>
                    </mxGeometry>
                </mxCell>
                <mxCell id="39" value="" style="endArrow=none;html=1;startArrow=none;startFill=0;endFill=0;fillColor=#f8cecc;strokeColor=#000000;entryX=0;entryY=1;entryDx=0;entryDy=0;" parent="1" target="73" edge="1">
                    <mxGeometry width="50" height="50" relative="1" as="geometry">
                        <mxPoint x="670" y="260" as="sourcePoint"/>
                        <mxPoint x="700" y="210" as="targetPoint"/>
                    </mxGeometry>
                </mxCell>
                <mxCell id="40" value="" style="endArrow=none;html=1;startArrow=none;startFill=0;endFill=0;fillColor=#dae8fc;strokeColor=#000000;strokeWidth=1;sketch=0;dashed=1;fontColor=#66B2FF;" parent="1" edge="1">
                    <mxGeometry width="50" height="50" relative="1" as="geometry">
                        <mxPoint x="750" y="310" as="sourcePoint"/>
                        <mxPoint x="670" y="260" as="targetPoint"/>
                    </mxGeometry>
                </mxCell>
                <mxCell id="41" value="" style="endArrow=none;html=1;startArrow=none;startFill=0;endFill=0;fillColor=#dae8fc;strokeColor=#000000;strokeWidth=1;sketch=0;dashed=1;fontColor=#66B2FF;" parent="1" edge="1">
                    <mxGeometry width="50" height="50" relative="1" as="geometry">
                        <mxPoint x="740" y="290" as="sourcePoint"/>
                        <mxPoint x="670" y="260" as="targetPoint"/>
                    </mxGeometry>
                </mxCell>
                <mxCell id="42" value="" style="endArrow=none;html=1;startArrow=none;startFill=0;endFill=0;fillColor=#dae8fc;strokeColor=#000000;strokeWidth=1;sketch=0;dashed=1;fontColor=#66B2FF;" parent="1" edge="1">
                    <mxGeometry width="50" height="50" relative="1" as="geometry">
                        <mxPoint x="720" y="260" as="sourcePoint"/>
                        <mxPoint x="670" y="260" as="targetPoint"/>
                    </mxGeometry>
                </mxCell>
                <mxCell id="44" value="T" style="text;html=1;strokeColor=none;fillColor=none;align=center;verticalAlign=middle;whiteSpace=wrap;rounded=0;" parent="1" vertex="1">
                    <mxGeometry x="490" y="360" width="30" height="30" as="geometry"/>
                </mxCell>
                <mxCell id="45" value="S" style="text;html=1;strokeColor=none;fillColor=none;align=center;verticalAlign=middle;whiteSpace=wrap;rounded=0;" parent="1" vertex="1">
                    <mxGeometry x="760" y="360" width="30" height="30" as="geometry"/>
                </mxCell>
                <mxCell id="46" value="R" style="text;html=1;strokeColor=none;fillColor=none;align=center;verticalAlign=middle;whiteSpace=wrap;rounded=0;" parent="1" vertex="1">
                    <mxGeometry x="620" y="110" width="40" height="30" as="geometry"/>
                </mxCell>
                <mxCell id="47" value="..." style="text;html=1;strokeColor=none;fillColor=none;align=center;verticalAlign=middle;whiteSpace=wrap;rounded=0;rotation=-55;fontColor=#9C9C9C;" parent="1" vertex="1">
                    <mxGeometry x="565" y="175" width="30" height="30" as="geometry"/>
                </mxCell>
                <mxCell id="51" value="..." style="text;html=1;strokeColor=none;fillColor=none;align=center;verticalAlign=middle;whiteSpace=wrap;rounded=0;rotation=55;fontColor=#9C9C9C;" parent="1" vertex="1">
                    <mxGeometry x="685" y="175" width="30" height="30" as="geometry"/>
                </mxCell>
                <mxCell id="53" value="..." style="text;html=1;strokeColor=none;fillColor=none;align=center;verticalAlign=middle;whiteSpace=wrap;rounded=0;rotation=0;fontColor=#9C9C9C;" parent="1" vertex="1">
                    <mxGeometry x="580" y="360" width="40" height="30" as="geometry"/>
                </mxCell>
                <mxCell id="54" value="..." style="text;html=1;strokeColor=none;fillColor=none;align=center;verticalAlign=middle;whiteSpace=wrap;rounded=0;rotation=0;fontColor=#9C9C9C;" parent="1" vertex="1">
                    <mxGeometry x="660" y="360" width="40" height="30" as="geometry"/>
                </mxCell>
                <mxCell id="55" value="..." style="text;html=1;strokeColor=none;fillColor=none;align=center;verticalAlign=middle;whiteSpace=wrap;rounded=0;rotation=60;fontColor=#9C9C9C;" parent="1" vertex="1">
                    <mxGeometry x="720" y="260" width="30" height="30" as="geometry"/>
                </mxCell>
                <mxCell id="64" value="x&lt;sub style=&quot;font-size: 10px;&quot;&gt;0&lt;/sub&gt;" style="ellipse;whiteSpace=wrap;html=1;aspect=fixed;glass=0;fontSize=10;strokeColor=none;" parent="1" vertex="1">
                    <mxGeometry x="630" y="270" width="20" height="20" as="geometry"/>
                </mxCell>
                <mxCell id="65" value="x&lt;sub&gt;1&lt;/sub&gt;" style="ellipse;whiteSpace=wrap;html=1;aspect=fixed;glass=0;fontSize=10;strokeColor=none;" parent="1" vertex="1">
                    <mxGeometry x="600" y="250" width="20" height="20" as="geometry"/>
                </mxCell>
                <mxCell id="66" value="x&lt;span style=&quot;font-size: 8.33333px&quot;&gt;&lt;sub&gt;2&lt;/sub&gt;&lt;/span&gt;" style="ellipse;whiteSpace=wrap;html=1;aspect=fixed;glass=0;fontSize=10;strokeColor=none;" parent="1" vertex="1">
                    <mxGeometry x="660" y="250" width="20" height="20" as="geometry"/>
                </mxCell>
                <mxCell id="67" value="x&lt;span style=&quot;font-size: 6.94444px&quot;&gt;&lt;sub&gt;3&lt;/sub&gt;&lt;/span&gt;" style="ellipse;whiteSpace=wrap;html=1;aspect=fixed;glass=0;fontSize=10;strokeColor=none;" parent="1" vertex="1">
                    <mxGeometry x="630" y="300" width="20" height="20" as="geometry"/>
                </mxCell>
                <mxCell id="68" value="a&lt;sub&gt;n&lt;/sub&gt;&lt;sup&gt;l&lt;/sup&gt;" style="ellipse;whiteSpace=wrap;html=1;aspect=fixed;glass=0;fontSize=10;strokeColor=none;fontColor=#000000;" parent="1" vertex="1">
                    <mxGeometry x="560" y="200" width="20" height="20" as="geometry"/>
                </mxCell>
                <mxCell id="69" value="a&lt;sub&gt;1&lt;/sub&gt;&lt;sup&gt;l&lt;/sup&gt;" style="ellipse;whiteSpace=wrap;html=1;aspect=fixed;glass=0;fontSize=10;strokeColor=none;fontColor=#000000;" parent="1" vertex="1">
                    <mxGeometry x="600" y="135" width="20" height="20" as="geometry"/>
                </mxCell>
                <mxCell id="70" value="a&lt;sub&gt;2&lt;/sub&gt;&lt;sup&gt;l&lt;/sup&gt;" style="ellipse;whiteSpace=wrap;html=1;aspect=fixed;glass=0;fontSize=10;strokeColor=none;fontColor=#000000;" parent="1" vertex="1">
                    <mxGeometry x="580" y="155" width="20" height="20" as="geometry"/>
                </mxCell>
                <mxCell id="71" value="a&lt;sub&gt;1&lt;/sub&gt;&lt;sup&gt;r&lt;/sup&gt;" style="ellipse;whiteSpace=wrap;html=1;aspect=fixed;glass=0;fontSize=10;strokeColor=none;fontColor=#000000;" parent="1" vertex="1">
                    <mxGeometry x="660" y="135" width="20" height="20" as="geometry"/>
                </mxCell>
                <mxCell id="72" value="a&lt;sub&gt;2&lt;/sub&gt;&lt;sup&gt;r&lt;/sup&gt;" style="ellipse;whiteSpace=wrap;html=1;aspect=fixed;glass=0;fontSize=10;strokeColor=none;fontColor=#000000;" parent="1" vertex="1">
                    <mxGeometry x="680" y="155" width="20" height="20" as="geometry"/>
                </mxCell>
                <mxCell id="73" value="a&lt;sub&gt;n&lt;/sub&gt;&lt;sup&gt;r&lt;/sup&gt;" style="ellipse;whiteSpace=wrap;html=1;aspect=fixed;glass=0;fontSize=10;strokeColor=none;fontColor=#000000;" parent="1" vertex="1">
                    <mxGeometry x="700" y="200" width="20" height="20" as="geometry"/>
                </mxCell>
                <mxCell id="74" value="c&lt;sub&gt;n&lt;/sub&gt;&lt;sup&gt;l&lt;/sup&gt;" style="ellipse;whiteSpace=wrap;html=1;aspect=fixed;glass=0;fontSize=10;strokeColor=none;fontColor=#000000;" parent="1" vertex="1">
                    <mxGeometry x="610" y="365" width="20" height="20" as="geometry"/>
                </mxCell>
                <mxCell id="75" value="c&lt;sub&gt;1&lt;/sub&gt;&lt;sup&gt;l&lt;/sup&gt;" style="ellipse;whiteSpace=wrap;html=1;aspect=fixed;glass=0;fontSize=10;strokeColor=none;fontColor=#000000;" parent="1" vertex="1">
                    <mxGeometry x="540" y="365" width="20" height="20" as="geometry"/>
                </mxCell>
                <mxCell id="76" value="c&lt;sub&gt;2&lt;/sub&gt;&lt;sup&gt;l&lt;/sup&gt;" style="ellipse;whiteSpace=wrap;html=1;aspect=fixed;glass=0;fontSize=10;strokeColor=none;fontColor=#000000;" parent="1" vertex="1">
                    <mxGeometry x="570" y="365" width="20" height="20" as="geometry"/>
                </mxCell>
                <mxCell id="77" value="c&lt;sub&gt;n&lt;/sub&gt;&lt;sup&gt;r&lt;/sup&gt;" style="ellipse;whiteSpace=wrap;html=1;aspect=fixed;glass=0;fontSize=10;strokeColor=none;fontColor=#000000;" parent="1" vertex="1">
                    <mxGeometry x="540" y="250" width="20" height="20" as="geometry"/>
                </mxCell>
                <mxCell id="78" value="c&lt;sub&gt;2&lt;/sub&gt;&lt;sup&gt;r&lt;/sup&gt;" style="ellipse;whiteSpace=wrap;html=1;aspect=fixed;glass=0;fontSize=10;strokeColor=none;fontColor=#000000;" parent="1" vertex="1">
                    <mxGeometry x="520" y="280" width="20" height="20" as="geometry"/>
                </mxCell>
                <mxCell id="79" value="c&lt;sub&gt;1&lt;/sub&gt;&lt;sup&gt;r&lt;/sup&gt;" style="ellipse;whiteSpace=wrap;html=1;aspect=fixed;glass=0;fontSize=10;strokeColor=none;fontColor=#000000;" parent="1" vertex="1">
                    <mxGeometry x="510" y="310" width="20" height="20" as="geometry"/>
                </mxCell>
                <mxCell id="80" value="b&lt;sub&gt;n&lt;/sub&gt;&lt;sup&gt;l&lt;/sup&gt;" style="ellipse;whiteSpace=wrap;html=1;aspect=fixed;glass=0;fontSize=10;strokeColor=none;fontColor=#000000;" parent="1" vertex="1">
                    <mxGeometry x="720" y="250" width="20" height="20" as="geometry"/>
                </mxCell>
                <mxCell id="81" value="b&lt;sub&gt;1&lt;/sub&gt;&lt;sup&gt;l&lt;/sup&gt;" style="ellipse;whiteSpace=wrap;html=1;aspect=fixed;glass=0;fontSize=10;strokeColor=none;fontColor=#000000;" parent="1" vertex="1">
                    <mxGeometry x="750" y="310" width="20" height="20" as="geometry"/>
                </mxCell>
                <mxCell id="82" value="b&lt;sub&gt;2&lt;/sub&gt;&lt;sup&gt;l&lt;/sup&gt;" style="ellipse;whiteSpace=wrap;html=1;aspect=fixed;glass=0;fontSize=10;strokeColor=none;fontColor=#000000;" parent="1" vertex="1">
                    <mxGeometry x="740" y="280" width="20" height="20" as="geometry"/>
                </mxCell>
                <mxCell id="84" value="b&lt;span style=&quot;font-size: 8.33333px&quot;&gt;&lt;sub&gt;1&lt;/sub&gt;&lt;sup&gt;r&lt;/sup&gt;&lt;/span&gt;" style="ellipse;whiteSpace=wrap;html=1;aspect=fixed;glass=0;fontSize=10;strokeColor=none;fontColor=#000000;" parent="1" vertex="1">
                    <mxGeometry x="720" y="365" width="20" height="20" as="geometry"/>
                </mxCell>
                <mxCell id="85" value="b&lt;sub&gt;2&lt;/sub&gt;&lt;span style=&quot;font-size: 8.33333px&quot;&gt;&lt;sup&gt;r&lt;/sup&gt;&lt;/span&gt;" style="ellipse;whiteSpace=wrap;html=1;aspect=fixed;glass=0;fontSize=10;strokeColor=none;fontColor=#000000;" parent="1" vertex="1">
                    <mxGeometry x="690" y="365" width="20" height="20" as="geometry"/>
                </mxCell>
                <mxCell id="86" value="b&lt;sub&gt;n&lt;/sub&gt;&lt;span style=&quot;font-size: 8.33333px&quot;&gt;&lt;sup&gt;r&lt;/sup&gt;&lt;/span&gt;" style="ellipse;whiteSpace=wrap;html=1;aspect=fixed;glass=0;fontSize=10;strokeColor=none;fontColor=#000000;" parent="1" vertex="1">
                    <mxGeometry x="650" y="365" width="20" height="20" as="geometry"/>
                </mxCell>
                <mxCell id="88" value="..." style="text;html=1;strokeColor=none;fillColor=none;align=center;verticalAlign=middle;whiteSpace=wrap;rounded=0;rotation=-60;fontColor=#9C9C9C;" parent="1" vertex="1">
                    <mxGeometry x="530" y="260" width="30" height="30" as="geometry"/>
                </mxCell>
                <mxCell id="89" value="a&lt;span style=&quot;font-size: 8.33333px&quot;&gt;&lt;sub&gt;0&lt;/sub&gt;&lt;/span&gt;" style="ellipse;whiteSpace=wrap;html=1;aspect=fixed;glass=0;fontSize=10;strokeColor=none;fontColor=#000000;" parent="1" vertex="1">
                    <mxGeometry x="630" y="135" width="20" height="20" as="geometry"/>
                </mxCell>
                <mxCell id="90" value="b&lt;span style=&quot;font-size: 8.33333px&quot;&gt;&lt;sub&gt;0&lt;/sub&gt;&lt;/span&gt;" style="ellipse;whiteSpace=wrap;html=1;aspect=fixed;glass=0;fontSize=10;strokeColor=none;fontColor=#000000;" parent="1" vertex="1">
                    <mxGeometry x="750" y="350" width="20" height="20" as="geometry"/>
                </mxCell>
                <mxCell id="91" value="c&lt;span style=&quot;font-size: 8.33333px&quot;&gt;&lt;sub&gt;0&lt;/sub&gt;&lt;/span&gt;" style="ellipse;whiteSpace=wrap;html=1;aspect=fixed;glass=0;fontSize=10;strokeColor=none;fontColor=#000000;" parent="1" vertex="1">
                    <mxGeometry x="510" y="350" width="20" height="20" as="geometry"/>
                </mxCell>
            </root>
        </mxGraphModel>
    </diagram>
</mxfile>